<svg width="21" height="19" viewBox="0 0 21 19" fill="none" xmlns="http://www.w3.org/2000/svg">
<path d="M3.89 0.5V2.41H0.5V4.28C0.5 7.41 1.43 9.155 3.665 10.24C4.4959 10.6867 5.2628 11.2434 5.945 11.895C6.49353 12.4796 7.1622 12.9385 7.905 13.24L8.75 13.5V15.765H7.46C5.9 15.765 5.375 16.12 5.375 17.175V17.885H15.125V17.25C15.125 16.215 14.485 15.75 13.005 15.75H11.75V13.5L12.61 13.245C13.354 12.9434 14.023 12.4827 14.57 11.895C15.2819 11.2169 16.0785 10.6337 16.94 10.16C17.6091 9.83803 18.2066 9.38486 18.697 8.82741C19.1875 8.26996 19.5609 7.61961 19.795 6.915C19.9541 6.04257 20.0278 5.15672 20.015 4.27V2.415H16.61V0.5H3.89ZM10.25 3.685L11.275 5.805H13.745L11.81 7.59L12.365 9.87L10.25 8.735L8.135 9.885L8.69 7.605L6.75 5.82H9.225L10.25 3.685ZM2.28 4.32H3.86V8.26C3.695 8.36 3.18 7.76 2.805 7.075C2.59203 6.55059 2.45564 5.99826 2.4 5.435L2.28 4.32ZM16.64 4.32H18.36L18.215 5.42C18.1809 6.33569 17.8127 7.20721 17.18 7.87C17.0309 8.07267 16.8421 8.24281 16.625 8.37L16.64 4.32Z" stroke="white" stroke-linecap="round" stroke-linejoin="round"/>
</svg>
